PathFileType	4	(X/Y/Z)	Kaydara																																																																																																																									
DataRate	CameraRate	NumFrames	NumMarkers	Units	OrigDataRate	OrigDataStartFrame	OrigNumFrames																																																																																																																					
30	30	8	41	mm	30	47	115																																																																																																																					
Frame#	Time	PAIB_LFHD			PAIB_RFHD			PAIB_LBHD			PAIB_RBHD			PAIB_LFTShould			PAIB_RFTShould			PAIB_LRRShould			PAIB_RRRShould			PAIB_T10			PAIB_STRN			PAIB_TRUN			PAIB_LSHO			PAIB_LUPA			PAIB_LELB			PAIB_LFRM			PAIB_LWRA			PAIB_LWRB			PAIB_LFIN			PAIB_RSHO			PAIB_RUPA			PAIB_RELB			PAIB_RFRM			PAIB_RWRA			PAIB_RWRB			PAIB_RFIN			PAIB_LFWT			PAIB_RFWT			PAIB_LBWT			PAIB_RBWT			PAIB_LTHI			PAIB_LKNE			PAIB_LSHN			PAIB_LANK			PAIB_LHEE			PAIB_LTOE			PAIB_RTHI			PAIB_RKNE			PAIB_RSHN			PAIB_RANK			PAIB_RHEE			PAIB_RTOE		
		X1	Y1	Z1	X2	Y2	Z2	X3	Y3	Z3	X4	Y4	Z4	X5	Y5	Z5	X6	Y6	Z6	X7	Y7	Z7	X8	Y8	Z8	X9	Y9	Z9	X10	Y10	Z10	X11	Y11	Z11	X12	Y12	Z12	X13	Y13	Z13	X14	Y14	Z14	X15	Y15	Z15	X16	Y16	Z16	X17	Y17	Z17	X18	Y18	Z18	X19	Y19	Z19	X20	Y20	Z20	X21	Y21	Z21	X22	Y22	Z22	X23	Y23	Z23	X24	Y24	Z24	X25	Y25	Z25	X26	Y26	Z26	X27	Y27	Z27	X28	Y28	Z28	X29	Y29	Z29	X30	Y30	Z30	X31	Y31	Z31	X32	Y32	Z32	X33	Y33	Z33	X34	Y34	Z34	X35	Y35	Z35	X36	Y36	Z36	X37	Y37	Z37	X38	Y38	Z38	X39	Y39	Z39	X40	Y40	Z40	X41	Y41	Z41
																																																																																																																												
29	1.533	259.67035	1689.90738	-1948.82492	74.08134	1689.52881	-1960.17258	276.92263	1662.7916	-2075.87372	73.46698	1672.72064	-2076.60339	232.66462	1431.01852	-1976.49597	109.93412	1428.50128	-1989.47372	251.42805	1499.92111	-2117.06909	100.1123	1500.12512	-2121.20041	179.31623	1344.78195	-2206.00449	177.11586	1364.01184	-1945.54733	174.72023	1262.21664	-1925.00137	369.23664	1442.45148	-2050.42618	435.90366	1219.96223	-2084.49539	451.3147	1143.86215	-2130.72968	469.15726	1028.62946	-2083.32962	409.43745	921.22574	-1993.96072	448.79662	900.38315	-2058.43079	458.57075	865.5677	-1994.31732	-13.78294	1433.87833	-2056.55258	-83.39855	1273.55362	-2128.05466	-113.23863	1161.65413	-2146.98486	-132.97356	1028.49327	-2104.40659	-75.93626	935.99152	-1997.85706	-141.94385	915.81558	-2044.86603	-134.4968	886.74652	-1976.81595	284.22361	976.43471	-1976.58966	47.72891	976.43166	-1987.52365	231.89413	1013.33519	-2196.39008	87.8799	1024.68651	-2195.03708	277.83897	741.11618	-2178.60764	317.78574	497.91878	-2067.86041	291.76146	305.84059	-2076.52252	302.45308	132.90223	-2188.47565	246.74835	124.09898	-2236.47903	286.84418	91.79249	-2021.38306	23.5736	723.22426	-2181.2056	7.654	484.28478	-2087.84561	65.28289	294.34719	-2096.28586	22.99533	113.36636	-2213.56415	84.81238	113.58368	-2253.41476	41.59027	96.50418	-2026.8071
30	1.567	262.4988	1688.76846	-1942.05338	75.06721	1687.13821	-1952.13593	277.77403	1660.61615	-2067.40707	74.57529	1670.37308	-2068.62747	232.80642	1429.14825	-1968.22449	109.74983	1426.95145	-1983.84705	254.15396	1497.87811	-2108.26614	102.76532	1498.42957	-2115.69458	183.38448	1342.93396	-2199.01215	176.36452	1362.30194	-1938.349	173.21224	1260.51392	-1918.23944	370.46417	1439.76715	-2040.71182	438.89984	1218.7944	-2077.87674	455.02228	1143.38913	-2124.54712	472.34528	1027.79175	-2077.18704	411.2389	920.15518	-1988.95615	451.76991	899.46358	-2052.87827	460.0444	864.22394	-1988.76053	-12.36619	1432.55234	-2053.6058	-81.45122	1272.38457	-2125.55222	-111.66474	1160.65727	-2144.41895	-132.05273	1027.76527	-2101.00952	-76.09386	935.99724	-1993.36746	-141.69766	915.58174	-2040.87692	-134.93452	886.90163	-1972.45438	283.67552	974.0892	-1967.8894	47.84474	974.91951	-1982.87704	235.67167	1012.53204	-2188.31161	91.65169	1023.81485	-2189.75403	281.23219	740.13466	-2171.3031	316.98198	496.34487	-2059.31961	290.59597	303.80487	-2071.73187	302.03651	132.3473	-2186.00967	246.67421	124.62255	-2234.84131	285.00813	89.70165	-2019.85641	26.63757	722.47581	-2177.52869	9.62753	482.61608	-2081.65192	66.18108	293.22184	-2094.19922	23.77966	113.37311	-2213.07037	85.60029	113.71882	-2252.86453	41.32613	95.00628	-2026.65436
31	1.6	261.70856	1685.77454	-1929.89349	76.30952	1685.64911	-1941.58234	278.85761	1658.32489	-2056.70135	75.72942	1668.88107	-2058.04474	233.03591	1427.39883	-1957.34161	109.66183	1425.16678	-1975.51605	256.656	1496.17157	-2096.83304	105.37288	1496.84113	-2107.39349	187.68604	1341.56799	-2189.48563	176.10025	1360.57388	-1928.75992	172.76768	1258.71109	-1908.91586	371.76212	1437.59567	-2028.18237	442.75234	1218.50098	-2069.38309	459.54353	1143.65028	-2116.01227	476.41869	1027.37488	-2069.24347	413.93684	919.18121	-1982.59064	455.50705	898.95363	-2045.96466	462.52636	863.12706	-1982.03949	-10.88985	1430.93414	-2048.35419	-78.85882	1271.34842	-2122.64771	-109.45669	1159.82376	-2141.82327	-130.70645	1027.10243	-2097.81891	-76.64653	936.00456	-1988.97491	-141.58333	915.3923	-2037.25998	-135.6114	887.06268	-1968.508	284.23519	971.7775	-1958.25165	49.02044	973.96194	-1976.64063	239.96891	1011.60057	-2179.24484	95.92383	1023.56369	-2182.99118	284.59484	739.03297	-2163.20648	316.64722	494.05479	-2053.45871	290.85596	302.12549	-2068.42407	302.54873	131.92113	-2184.76074	247.43969	124.99529	-2233.94485	285.43316	87.97926	-2019.37775	29.57429	722.81227	-2173.7117	10.86316	482.42081	-2079.04663	66.94888	292.48947	-2092.95563	24.33593	113.44492	-2212.85278	86.22348	113.87987	-2252.56622	41.25401	93.11673	-2026.24802
32	1.633	262.63378	1683.68744	-1916.52771	77.42628	1683.88443	-1928.68469	280.31746	1656.48636	-2043.47549	77.08427	1667.15103	-2045.05554	233.72789	1425.93063	-1944.24316	110.42576	1423.17383	-1964.10141	258.78342	1495.32822	-2083.15323	107.83929	1495.63034	-2095.93155	191.89581	1341.20285	-2177.91916	176.1982	1358.39828	-1916.96793	172.82784	1256.42555	-1897.81815	373.20744	1436.78879	-2013.80951	446.40903	1219.22264	-2056.81488	464.66358	1145.12489	-2104.14688	480.91743	1028.41179	-2058.2901	416.27296	918.9418	-1974.85107	460.41836	899.62074	-2036.67007	465.35061	863.48068	-1972.82593	-9.01518	1428.96912	-2039.97086	-75.73334	1270.75508	-2117.8833	-106.98576	1159.77722	-2138.39981	-129.24018	1026.84372	-2094.83551	-76.97659	935.70183	-1985.0737	-141.39464	915.13458	-2034.62616	-137.05724	887.12791	-1965.65689	285.40745	969.29962	-1948.3429	50.62457	971.99417	-1969.32297	244.63566	1011.27403	-2169.3074	100.57071	1023.67996	-2174.91318	287.79284	738.36205	-2155.18494	317.66775	492.2308	-2048.84369	290.59116	300.53648	-2065.13016	303.08239	131.68366	-2183.38058	248.24867	125.38346	-2233.1424	284.70055	86.001	-2018.36243	32.05437	722.72224	-2169.12537	11.47771	481.70944	-2078.30505	67.01056	291.59164	-2091.24268	25.04222	113.58974	-2212.36588	86.88134	114.1409	-2251.59241	39.90463	89.86318	-2025.29755
33	1.667	263.62642	1681.60828	-1900.61829	78.83777	1681.59241	-1913.73672	281.45401	1653.93143	-2027.27692	78.45135	1664.72458	-2029.56696	234.35463	1423.92883	-1928.50174	111.35886	1420.53574	-1950.63919	261.18834	1494.5929	-2066.56967	110.70617	1494.30923	-2081.9725	196.67435	1341.28021	-2164.64859	176.12894	1355.70557	-1903.34198	173.58852	1253.44498	-1885.14359	374.85577	1436.0405	-1996.25427	450.60627	1220.51193	-2041.88126	470.7679	1147.53838	-2090.04822	486.0461	1030.30327	-2043.95157	418.16383	919.70078	-1964.48822	465.78072	901.25175	-2023.71704	467.6046	865.17212	-1959.69193	-6.69243	1427.01187	-2028.97018	-72.57626	1270.58128	-2110.63934	-104.66226	1160.65643	-2134.04633	-127.88013	1026.968	-2091.74301	-78.07597	934.73015	-1981.92413	-141.59426	914.81972	-2032.6976	-138.72889	886.46759	-1963.73901	287.90428	966.51138	-1938.87085	53.10083	969.63753	-1960.22995	248.70447	1010.57899	-2159.26926	104.66896	1023.50159	-2165.36926	290.83971	737.3307	-2147.3671	317.78378	489.94816	-2041.69601	290.74635	298.61286	-2061.73325	303.41709	131.44644	-2181.86737	248.91108	125.89235	-2232.36389	283.37456	83.81474	-2017.04422	35.06152	722.89551	-2163.36273	13.28936	480.6538	-2075.55618	67.42851	290.74886	-2089.45694	25.99346	113.84055	-2211.8544	88.02588	114.30018	-2250.57205	38.48641	86.14062	-2023.94485
34	1.7	265.19938	1678.80386	-1882.68234	80.14662	1679.09164	-1894.79294	282.82221	1651.20239	-2009.57306	79.6751	1662.05139	-2011.1496	234.7514	1420.43503	-1911.3884	112.71784	1417.17789	-1934.90021	263.92426	1493.85834	-2047.32666	113.73066	1492.8389	-2065.10834	201.55348	1341.44501	-2148.65234	177.87449	1351.92474	-1887.21664	175.25867	1249.43619	-1871.03729	376.7942	1434.8111	-1976.05545	456.37245	1221.84647	-2025.32928	477.9966	1149.85001	-2073.59161	491.88576	1032.05002	-2027.46002	421.01765	921.23077	-1950.64728	470.23891	902.32674	-2007.18719	470.07095	866.69235	-1944.02954	-4.19478	1424.72015	-2015.22141	-69.36539	1270.48691	-2101.46973	-101.73555	1161.40884	-2127.51297	-126.65797	1027.41356	-2088.23441	-78.65856	932.93816	-1979.37073	-142.0682	914.54056	-2031.31195	-140.22922	885.0145	-1962.63428	291.34735	963.81775	-1928.71552	56.71267	967.06657	-1948.91556	251.82835	1009.89212	-2148.69476	107.74542	1023.24623	-2153.86383	293.45993	736.71051	-2139.67697	318.79765	487.83257	-2035.43167	290.2836	297.02082	-2057.38678	303.6554	131.198	-2180.49774	249.3635	126.49155	-2231.41266	282.58524	81.80228	-2015.79498	38.44055	723.39264	-2155.86136	15.63653	479.67003	-2071.18317	68.58862	290.13199	-2087.86865	26.56701	114.06392	-2211.39572	88.59694	114.59152	-2249.90311	36.52393	81.88162	-2022.48856
35	1.733	267.10096	1675.39871	-1862.46689	82.08469	1675.52338	-1874.26605	284.74072	1648.24997	-1989.57977	81.52063	1658.69522	-1990.57251	237.05093	1416.96671	-1892.5499	115.35277	1413.27698	-1916.81107	266.85062	1492.70035	-2026.97327	116.86999	1491.12198	-2046.10855	206.05705	1341.53351	-2131.47614	179.91291	1347.91351	-1870.17471	178.07594	1244.76578	-1855.5304	379.05487	1433.24249	-1955.07935	462.08057	1222.7948	-2006.78268	485.72414	1151.37482	-2054.69971	498.06347	1032.94281	-2008.44833	424.5932	922.64191	-1932.96906	475.39776	903.89801	-1989.272	473.02349	867.3526	-1925.6485	-1.14073	1422.02438	-1998.58948	-65.95428	1270.9053	-2090.12512	-98.7068	1162.87354	-2119.65347	-125.13671	1028.05099	-2084.41833	-79.36484	930.2726	-1977.43759	-142.23489	913.80402	-2030.71915	-141.50606	882.50786	-1962.65259	295.59868	960.60112	-1917.13409	61.06581	963.46451	-1936.07285	255.1239	1009.30016	-2136.56143	110.94211	1022.73331	-2141.14822	296.60664	736.33156	-2131.17538	320.41916	485.73772	-2030.34027	291.03199	295.47207	-2055.08575	303.8163	130.88102	-2179.65668	249.71802	127.0052	-2230.97214	282.07224	81.27556	-2015.73471	40.95193	723.32382	-2146.84082	17.20925	478.51559	-2066.94656	69.18653	288.81346	-2085.45746	27.01344	114.4043	-2210.80231	88.98997	115.08832	-2249.29092	36.72722	80.55478	-2022.35992
36	1.767	268.862	1671.57669	-1839.90616	84.2972	1670.6604	-1853.01804	287.5386	1645.05142	-1966.99982	84.26127	1654.26682	-1968.93143	239.98983	1412.70233	-1872.70432	118.36869	1408.80585	-1897.39151	269.98474	1490.63065	-2005.81314	120.24297	1488.85727	-2025.56259	210.31931	1340.90897	-2113.00537	182.68555	1343.08899	-1851.51733	181.4975	1239.65233	-1838.77655	381.80325	1430.86456	-1933.91052	468.42377	1222.51106	-1986.0878	493.6496	1151.63414	-2033.80325	504.33521	1032.95708	-1986.25946	428.106	923.69278	-1911.87515	480.15102	904.18335	-1966.08643	475.85686	867.64069	-1903.38837	2.35236	1418.84796	-1979.62479	-62.06595	1271.399	-2076.61575	-95.23458	1164.86557	-2110.58121	-123.16298	1029.00688	-2080.3186	-79.92208	927.27257	-1976.11053	-142.0105	913.20686	-2030.77423	-142.5379	879.61807	-1963.69781	300.16176	956.83296	-1904.36859	65.36674	959.58824	-1922.00699	259.18238	1008.03642	-2122.99774	115.08869	1021.50597	-2126.93115	300.43085	735.89844	-2121.5004	322.4947	483.45207	-2025.18707	292.07439	293.58995	-2052.55356	304.55557	130.4397	-2178.76312	250.96302	127.42084	-2230.60699	281.69046	80.41502	-2015.57022	44.29759	721.48193	-2135.36804	18.59127	476.57536	-2059.56604	69.33602	286.7449	-2081.06354	28.06145	115.12996	-2209.80652	90.12775	116.11832	-2247.91092	37.46835	79.04358	-2021.71951
